<svg width="1080" height="1080" viewBox="0 0 1080 1080" fill="none" xmlns="http://www.w3.org/2000/svg">
<g clip-path="url(#clip0_367_6042)">
<rect width="1080" height="1080" fill="#CEDCFF"/>
<circle cx="848" cy="221" r="182" fill="#485EFF"/>
<circle cx="223" cy="265" r="390" fill="#E94D4D"/>
<circle cx="791.5" cy="1034.5" r="499.5" fill="#9CB5F4"/>
<path d="M94.6534 812L185.562 266.545H350.69L334.355 366.688H340.392C356.964 333.544 380.402 307.384 410.705 288.207C441.008 269.031 474.862 259.443 512.267 259.443C549.909 259.443 580.567 269.15 604.241 288.562C628.152 307.975 641.055 334.017 642.949 366.688H648.631C664.256 334.254 688.403 308.33 721.074 288.918C753.981 269.268 790.676 259.443 831.159 259.443C882.295 259.443 921.24 276.015 947.991 309.159C974.98 342.066 983.621 387.284 973.915 444.812L912.835 812H739.54L794.938 484.585C798.725 457.36 794.701 436.645 782.864 422.44C771.263 407.999 754.336 400.778 732.082 400.778C708.171 400.778 688.167 408.473 672.068 423.861C656.206 439.249 646.382 460.082 642.594 486.361L587.551 812H420.293L476.045 482.81C479.597 457.478 475.69 437.473 464.327 422.795C453.2 408.117 436.273 400.778 413.545 400.778C398.631 400.778 384.781 404.448 371.997 411.787C359.213 418.889 348.441 429.069 339.682 442.327C331.159 455.584 325.596 471.209 322.991 489.202L268.304 812H94.6534Z" fill="black"/>
</g>
<defs>
<clipPath id="clip0_367_6042">
<rect width="1080" height="1080" fill="white"/>
</clipPath>
</defs>
</svg>
